<svg xmlns="http://www.w3.org/2000/svg" viewBox="0 0 142 24"><g transform="translate(0 1.5) scale(1)"><path fill="none" stroke="var(--li-blue,#2563eb)" stroke-width="2.6" stroke-linejoin="round" d="M11.3 2.4c5.2 0 9.4 3.3 9.4 7.4 0 4.1-4.2 7.4-9.4 7.4-.8 0-1.6-.1-2.4-.2l-5.7 2.6 1.8-4.1C3 14.2 1.9 12 1.9 9.8c0-4.1 4.2-7.4 9.4-7.4Z"></path><g transform="rotate(-8 24 8.6)"><rect x="16.8" y="3.2" width="14" height="9.6" rx="1.4" fill="var(--li-orange,#f97316)"></rect><path fill="none" stroke="#fff" stroke-width="1.4" stroke-linejoin="round" stroke-linecap="round" d="m18 4.5 6 4.1 6-4.1"></path><path fill="none" stroke="#fff" stroke-width="1.1" stroke-linejoin="round" stroke-linecap="round" d="m18 11.7 4.3-3.1m3.4 0 4.3 3.1"></path></g></g><text x="37" y="17.2" font-family="-apple-system,BlinkMacSystemFont,'Segoe UI',Helvetica,Arial,sans-serif" font-size="13.5" font-weight="600" letter-spacing="-.2" fill="var(--li-ink,#111113)">Letter IRL</text></svg>